<svg width="102" height="65" viewBox="0 0 102 65" fill="none" xmlns="http://www.w3.org/2000/svg">
<g clip-path="url(#clip0)">
<path d="M98.5263 0C100.445 0 102 1.55522 102 3.47369V60.9474C102 62.8658 100.445 64.4211 98.5263 64.4211H3.47366C1.55521 64.4211 -2.28882e-05 62.8658 -2.28882e-05 60.9474V3.47369C-2.28882e-05 1.55522 1.5552 0 3.47366 0L98.5263 0Z" fill="#393536"/>
<path d="M-1.29053 -1.26318L-1.29053 65.5511H103.263V-1.26318L-1.29053 -1.26318Z" fill="#393536"/>
<path d="M-1.29053 -1.26318L-1.29053 65.5511H39.8467L62.1263 -1.26318L-1.29053 -1.26318Z" fill="#252122"/>
<path d="M50.7087 15.6385C52.9411 13.4372 55.6838 12.353 58.9373 12.353C62.1904 12.353 64.9331 13.4372 67.1659 15.6385C69.3988 17.8393 70.515 20.6461 70.515 24.0263C70.515 28.1088 68.4102 31.7446 65.0931 33.6587L63.5937 31.0751C66.0497 29.7998 67.6443 27.0882 67.6443 24.0263C67.6443 21.4431 66.8152 19.3383 65.1567 17.7118C63.4981 16.0852 61.4253 15.2878 58.9373 15.2878C56.4813 15.2878 54.4085 16.0852 52.7499 17.7118C51.0914 19.3383 50.2619 21.4431 50.2619 24.0263C50.2619 27.0882 51.8569 29.7998 54.2809 31.0751L52.8135 33.6587C51.155 32.7337 49.8156 31.3943 48.827 29.6718C47.8379 27.9497 47.3596 26.068 47.3596 24.0263C47.3596 20.6461 48.4763 17.8393 50.7087 15.6385Z" fill="#747378"/>
<path d="M58.5221 44.7265C58.5221 45.9703 58.9369 46.9905 59.7659 47.7884C60.627 48.5855 61.6796 49.0002 62.9234 49.0002C65.475 49.0002 67.3251 47.1821 67.3251 44.7265V39.591H58.5221V44.7265ZM70.1002 44.7265C70.1002 46.7998 69.3984 48.4899 68.0266 49.8613C66.6552 51.2326 64.9647 51.9345 62.9234 51.9345C60.9146 51.9345 59.192 51.2326 57.8202 49.8613C56.4489 48.4899 55.7474 46.7998 55.7474 44.7265V39.591H47.7739V36.6255H70.1002V44.7265Z" fill="#747378"/>
<path d="M31.4578 32.1447C31.4578 21.7624 35.9736 11.9742 43.8472 5.28955L45.7672 7.5506C38.5588 13.6706 34.4241 22.6344 34.4241 32.143C34.4241 41.6529 38.5588 50.6176 45.7672 56.7371L43.8472 58.9986C35.9736 52.314 31.4578 42.5262 31.4578 32.1447Z" fill="#747378"/>
<path d="M14.6936 44.8934L9.90497 42.9986L13.9766 42.2327C14.4313 42.1426 14.6936 41.7877 14.6936 41.3931V38.2963L14.4894 38.2529C14.3513 38.8887 14.129 39.6112 13.8907 40.0487C13.7454 40.3165 13.6182 40.3931 13.2726 40.4807L7.65823 41.9321V43.8559L14.6936 46.8049V44.8934ZM14.6936 47.586L7.65823 46.0803V47.9005L14.6936 49.4054V47.586ZM12.793 58.0209L10.1513 58.5721V57.0626L12.793 58.0209ZM14.6936 57.754C14.6936 57.4049 14.4902 57.1106 14.1774 56.9797L7.65823 54.2491V56.159L8.70834 56.5392V58.8731L7.65823 59.0938L7.65823 60.7771L14.6936 59.3081V57.754ZM12.4966 49.9022C11.4835 49.8891 10.918 50.8049 10.582 51.4946C10.2372 52.2037 10.0157 52.4416 9.7075 52.439C9.2355 52.4336 9.02708 51.8736 9.01866 51.3494C9.00476 50.4348 9.26581 49.903 9.46329 49.4807L7.92181 49.151C7.72644 49.5755 7.55592 50.3603 7.54834 51.1746C7.54834 53.0862 8.49192 54.3367 9.95508 54.3435C11.8115 54.351 11.9142 51.7755 12.7441 51.7931C12.9959 51.799 13.2646 52.0395 13.3328 52.5654C13.3673 52.826 13.3938 53.5447 13.0182 54.3599L14.5096 54.6799C14.6692 54.2416 14.822 53.6782 14.822 52.9767C14.822 51.1776 13.8658 49.9119 12.4966 49.9022Z" fill="#747378"/>
<path d="M88.1859 41.6843H79.1821C78.5293 41.6843 78 41.1383 78 40.4649V31.5354C78 30.862 78.5293 30.3159 79.1821 30.3159H88.1859C88.8391 30.3159 89.3684 30.862 89.3684 31.5358V40.4649C89.3684 41.1383 88.8391 41.6843 88.1859 41.6843Z" fill="#393536"/>
<path d="M98.4252 64.4211H3.57479C1.60075 64.4211 0 62.8178 0 60.8408L0 3.58031C0 1.60281 1.60075 0 3.57479 0L98.4252 0C100.4 0 102 1.60281 102 3.58031V60.8408C102 62.8183 100.4 64.4211 98.4252 64.4211Z" stroke="#52AEE5" stroke-width="0.210526" stroke-miterlimit="10"/>
<path d="M88.1859 41.6843H79.1821C78.5293 41.6843 78 41.1383 78 40.4649V31.5354C78 30.862 78.5293 30.3159 79.1821 30.3159H88.1859C88.8391 30.3159 89.3684 30.862 89.3684 31.5358V40.4649C89.3684 41.1383 88.8391 41.6843 88.1859 41.6843Z" stroke="#161616" stroke-width="0.210526" stroke-miterlimit="10"/>
<path fill-rule="evenodd" clip-rule="evenodd" d="M82.553 46.5307C82.5871 46.4486 82.6987 46.3552 82.7956 46.3274C82.9042 46.2962 82.9901 46.3215 83.1926 46.4448C83.4528 46.6032 83.5926 46.6398 83.9332 46.6398C84.2735 46.6398 84.4132 46.6032 84.6735 46.4448C84.7619 46.3909 84.8676 46.3375 84.9084 46.3248C85.0802 46.2739 85.2903 46.417 85.3265 46.609C85.3572 46.772 85.2844 46.8836 85.0507 47.0335C84.3741 47.4672 83.4701 47.4667 82.7994 47.033C82.5627 46.8802 82.4789 46.7097 82.553 46.5307ZM81.9092 47.7842C81.956 47.6806 82.0655 47.5918 82.1758 47.5674C82.2431 47.5526 82.3172 47.5779 82.5661 47.7008C83.4798 48.1522 84.3602 48.1568 85.2524 47.7156C85.6444 47.5219 85.7227 47.5177 85.8772 47.6815C85.9535 47.7623 85.9669 47.7968 85.9669 47.9105C85.9669 48.1008 85.8714 48.1998 85.5215 48.3699C84.9838 48.6318 84.5172 48.7392 83.9194 48.7379C83.305 48.737 82.8831 48.6368 82.316 48.3573C81.9914 48.1973 81.9055 48.1181 81.8836 47.9577C81.8768 47.9084 81.8886 47.8305 81.9092 47.7842ZM81.2183 49.1274C81.2671 48.9602 81.4726 48.8389 81.6267 48.8878C81.6638 48.8992 81.8356 48.9783 82.0082 49.0629C82.7391 49.4213 83.5227 49.5703 84.2924 49.4975C84.9244 49.4373 85.3231 49.324 85.9067 49.0385C86.2979 48.8469 86.3585 48.8381 86.516 48.9497C86.6659 49.0554 86.6903 49.3198 86.5631 49.4587C86.4747 49.5547 85.8499 49.8541 85.4962 49.9695C84.3248 50.3518 83.068 50.2933 81.9172 49.8032C81.3282 49.5526 81.1459 49.3762 81.2183 49.1274ZM80.5366 50.4301C80.5682 50.321 80.6983 50.2103 80.8225 50.1872C80.9034 50.1716 80.9594 50.1901 81.1834 50.3059C82.0886 50.7741 82.9219 50.9775 83.9328 50.9775C84.9101 50.9775 85.6705 50.7973 86.5821 50.3501C86.7775 50.2541 86.9594 50.1754 86.9855 50.1754C87.0827 50.1754 87.2229 50.2566 87.2781 50.3446C87.3539 50.465 87.3396 50.6667 87.249 50.7636C87.2141 50.8006 87.0558 50.897 86.897 50.9779C86.2684 51.2979 85.5791 51.5173 84.8612 51.6259C84.417 51.6928 83.5749 51.7059 83.1686 51.6524C82.4183 51.5539 81.7492 51.3556 81.0932 51.0389C80.697 50.8469 80.5341 50.7269 80.5341 50.6263C80.5341 50.6061 80.529 50.5733 80.5227 50.553C80.5168 50.5328 80.5231 50.4777 80.5366 50.4301Z" fill="white"/>
<path d="M3.93212 42.8977C3.90854 43.0072 3.85633 43.0956 3.77548 43.163C3.69464 43.232 3.59948 43.2666 3.49001 43.2666C3.34517 43.2666 3.22896 43.2169 3.14138 43.1175C3.0538 43.0198 3.01001 42.8775 3.01001 42.6906V42.0287H4.79106V42.6804C4.79106 42.859 4.75148 42.9946 4.67233 43.0872C4.59317 43.1798 4.48454 43.2261 4.34643 43.2261C4.2319 43.2261 4.13927 43.195 4.06854 43.1327C3.9978 43.072 3.95233 42.9937 3.93212 42.8977ZM4.01043 42.2586V42.6426C4.01043 42.7554 4.03654 42.8413 4.08875 42.9002C4.14096 42.9609 4.21422 42.9912 4.30854 42.9912C4.39948 42.9912 4.47106 42.9617 4.52327 42.9028C4.57548 42.8438 4.60159 42.7537 4.60159 42.6324V42.2586H4.01043ZM3.20201 42.6476C3.20201 42.7689 3.2298 42.8623 3.28538 42.928C3.34096 42.9954 3.41927 43.0291 3.52033 43.0291C3.61969 43.0291 3.69717 42.9946 3.75275 42.9255C3.81001 42.8581 3.83864 42.7638 3.83864 42.6426V42.2586H3.20201V42.6476ZM4.79106 43.7706H3.72243C3.54727 43.7706 3.41759 43.8093 3.33338 43.8868C3.25085 43.9643 3.20959 44.0712 3.20959 44.2076C3.20959 44.3424 3.25169 44.4476 3.3359 44.5234C3.42012 44.5992 3.54896 44.6371 3.72243 44.6371H4.79106V44.867H3.72243C3.4799 44.867 3.29717 44.8064 3.17422 44.6851C3.05296 44.5655 2.99233 44.4047 2.99233 44.2026C2.99233 44.0022 3.05296 43.8413 3.17422 43.7201C3.29717 43.6005 3.4799 43.5407 3.72243 43.5407H4.79106V43.7706ZM3.47233 46.3503C3.38812 46.3503 3.3098 46.3301 3.23738 46.2897C3.16496 46.2492 3.10601 46.1878 3.06054 46.1052C3.01506 46.0227 2.99233 45.9208 2.99233 45.7996C2.99233 45.6817 3.01338 45.5764 3.05548 45.4838C3.09927 45.3928 3.15822 45.3196 3.23233 45.264C3.30812 45.2101 3.39401 45.1789 3.49001 45.1705V45.4156C3.43948 45.4206 3.3898 45.4375 3.34096 45.4661C3.2938 45.4964 3.25422 45.5385 3.22222 45.5924C3.1919 45.648 3.17675 45.7145 3.17675 45.792C3.17675 45.893 3.20369 45.9705 3.25759 46.0244C3.31148 46.0783 3.38054 46.1052 3.46475 46.1052C3.53717 46.1052 3.59612 46.0859 3.64159 46.0471C3.68706 46.0101 3.72243 45.9638 3.74769 45.9082C3.77464 45.8526 3.80327 45.7768 3.83359 45.6808C3.87064 45.568 3.90517 45.477 3.93717 45.408C3.97085 45.3406 4.02054 45.2825 4.08622 45.2337C4.1519 45.1865 4.23864 45.1629 4.34643 45.1629C4.43906 45.1629 4.52075 45.1848 4.59148 45.2286C4.66222 45.2741 4.71696 45.3381 4.75569 45.4206C4.79443 45.5048 4.8138 45.6034 4.8138 45.7162C4.8138 45.8914 4.77085 46.0303 4.68496 46.133C4.60075 46.2358 4.49296 46.2956 4.36159 46.3124V46.0648C4.43233 46.0514 4.49464 46.0151 4.54854 45.9562C4.60243 45.8972 4.62938 45.8172 4.62938 45.7162C4.62938 45.6236 4.60496 45.5495 4.55612 45.4939C4.50896 45.4383 4.44159 45.4105 4.35401 45.4105C4.28496 45.4105 4.22854 45.4282 4.18475 45.4636C4.14264 45.5006 4.10896 45.5461 4.08369 45.6C4.06012 45.6539 4.03317 45.728 4.00285 45.8223C3.9658 45.9368 3.93043 46.0286 3.89675 46.0977C3.86306 46.1684 3.81169 46.2282 3.74264 46.277C3.67527 46.3259 3.58517 46.3503 3.47233 46.3503ZM4.79106 46.8893H3.01001V46.6594H4.79106V46.8893ZM3.01001 48.6433V48.4135L4.41717 47.4888H3.01001V47.2589H4.79106V47.4888L3.38138 48.4135H4.79106V48.6433H3.01001ZM4.60412 49.2429H3.99527V49.92H3.81843V49.2429H3.19696V49.9958H3.01001V49.013H4.79106V49.9958H4.60412V49.2429ZM3.47233 51.4177C3.38812 51.4177 3.3098 51.3975 3.23738 51.3571C3.16496 51.3167 3.10601 51.2552 3.06054 51.1727C3.01506 51.0902 2.99233 50.9883 2.99233 50.867C2.99233 50.7491 3.01338 50.6438 3.05548 50.5512C3.09927 50.4603 3.15822 50.387 3.23233 50.3314C3.30812 50.2775 3.39401 50.2464 3.49001 50.2379V50.483C3.43948 50.488 3.3898 50.5049 3.34096 50.5335C3.2938 50.5638 3.25422 50.6059 3.22222 50.6598C3.1919 50.7154 3.17675 50.7819 3.17675 50.8594C3.17675 50.9605 3.20369 51.0379 3.25759 51.0918C3.31148 51.1457 3.38054 51.1727 3.46475 51.1727C3.53717 51.1727 3.59612 51.1533 3.64159 51.1146C3.68706 51.0775 3.72243 51.0312 3.74769 50.9756C3.77464 50.92 3.80327 50.8443 3.83359 50.7483C3.87064 50.6354 3.90517 50.5445 3.93717 50.4754C3.97085 50.408 4.02054 50.3499 4.08622 50.3011C4.1519 50.2539 4.23864 50.2304 4.34643 50.2304C4.43906 50.2304 4.52075 50.2523 4.59148 50.296C4.66222 50.3415 4.71696 50.4055 4.75569 50.488C4.79443 50.5723 4.8138 50.6708 4.8138 50.7836C4.8138 50.9588 4.77085 51.0977 4.68496 51.2005C4.60075 51.3032 4.49296 51.363 4.36159 51.3798V51.1323C4.43233 51.1188 4.49464 51.0826 4.54854 51.0236C4.60243 50.9647 4.62938 50.8847 4.62938 50.7836C4.62938 50.691 4.60496 50.6169 4.55612 50.5613C4.50896 50.5057 4.44159 50.4779 4.35401 50.4779C4.28496 50.4779 4.22854 50.4956 4.18475 50.531C4.14264 50.568 4.10896 50.6135 4.08369 50.6674C4.06012 50.7213 4.03317 50.7954 4.00285 50.8897C3.9658 51.0043 3.93043 51.096 3.89675 51.1651C3.86306 51.2358 3.81169 51.2956 3.74264 51.3445C3.67527 51.3933 3.58517 51.4177 3.47233 51.4177ZM3.47233 52.8536C3.38812 52.8536 3.3098 52.8334 3.23738 52.793C3.16496 52.7525 3.10601 52.6911 3.06054 52.6085C3.01506 52.526 2.99233 52.4241 2.99233 52.3029C2.99233 52.185 3.01338 52.0797 3.05548 51.9871C3.09927 51.8961 3.15822 51.8229 3.23233 51.7673C3.30812 51.7134 3.39401 51.6822 3.49001 51.6738V51.9189C3.43948 51.9239 3.3898 51.9407 3.34096 51.9694C3.2938 51.9997 3.25422 52.0418 3.22222 52.0957C3.1919 52.1513 3.17675 52.2178 3.17675 52.2953C3.17675 52.3963 3.20369 52.4738 3.25759 52.5277C3.31148 52.5816 3.38054 52.6085 3.46475 52.6085C3.53717 52.6085 3.59612 52.5892 3.64159 52.5504C3.68706 52.5134 3.72243 52.4671 3.74769 52.4115C3.77464 52.3559 3.80327 52.2801 3.83359 52.1841C3.87064 52.0713 3.90517 51.9803 3.93717 51.9113C3.97085 51.8439 4.02054 51.7858 4.08622 51.737C4.1519 51.6898 4.23864 51.6662 4.34643 51.6662C4.43906 51.6662 4.52075 51.6881 4.59148 51.7319C4.66222 51.7774 4.71696 51.8414 4.75569 51.9239C4.79443 52.0081 4.8138 52.1066 4.8138 52.2195C4.8138 52.3946 4.77085 52.5336 4.68496 52.6363C4.60075 52.7391 4.49296 52.7989 4.36159 52.8157V52.5681C4.43233 52.5546 4.49464 52.5184 4.54854 52.4595C4.60243 52.4005 4.62938 52.3205 4.62938 52.2195C4.62938 52.1269 4.60496 52.0527 4.55612 51.9972C4.50896 51.9416 4.44159 51.9138 4.35401 51.9138C4.28496 51.9138 4.22854 51.9315 4.18475 51.9669C4.14264 52.0039 4.10896 52.0494 4.08369 52.1033C4.06012 52.1572 4.03317 52.2313 4.00285 52.3256C3.9658 52.4401 3.93043 52.5319 3.89675 52.601C3.86306 52.6717 3.81169 52.7315 3.74264 52.7803C3.67527 52.8292 3.58517 52.8536 3.47233 52.8536ZM3.9018 55.2875C3.72159 55.2875 3.56412 55.2513 3.42938 55.1789C3.29633 55.1065 3.19275 54.9995 3.11864 54.858C3.04622 54.7183 3.01001 54.5498 3.01001 54.3528V53.7869H4.79106V54.3528C4.79106 54.5498 4.75485 54.7183 4.68243 54.858C4.61169 54.9995 4.50896 55.1065 4.37422 55.1789C4.24117 55.2513 4.08369 55.2875 3.9018 55.2875ZM3.21717 54.3351C3.21717 54.5675 3.27696 54.7452 3.39654 54.8681C3.51612 54.9911 3.68454 55.0526 3.9018 55.0526C4.11906 55.0526 4.28748 54.9911 4.40706 54.8681C4.52833 54.7469 4.58896 54.5692 4.58896 54.3351V54.0168H3.21717V54.3351ZM3.78054 56.8735C3.73169 56.8735 3.68959 56.8702 3.65422 56.8634V55.7544C3.4959 55.7594 3.37717 55.8041 3.29801 55.8883C3.21885 55.9742 3.17927 56.0786 3.17927 56.2015C3.17927 56.3127 3.20706 56.4053 3.26264 56.4794C3.3199 56.5552 3.39569 56.6015 3.49001 56.6184V56.8634C3.39401 56.8466 3.30812 56.8087 3.23233 56.7497C3.15654 56.6925 3.09759 56.6175 3.05548 56.5249C3.01338 56.4323 2.99233 56.3278 2.99233 56.2116C2.99233 56.0786 3.02096 55.9607 3.07822 55.858C3.13548 55.7552 3.21717 55.6744 3.32327 55.6154C3.43106 55.5582 3.55738 55.5295 3.70222 55.5295C3.84706 55.5295 3.97338 55.5582 4.08117 55.6154C4.18896 55.6744 4.27148 55.7552 4.32875 55.858C4.38601 55.9607 4.41464 56.0786 4.41464 56.2116C4.41464 56.3464 4.38601 56.4634 4.32875 56.5628C4.27148 56.6638 4.19485 56.7405 4.09885 56.7927C4.00285 56.8466 3.89675 56.8735 3.78054 56.8735ZM3.76538 56.6411C3.86812 56.6462 3.95401 56.6293 4.02306 56.5906C4.09212 56.5518 4.14348 56.4988 4.17717 56.4314C4.21085 56.3641 4.22769 56.2908 4.22769 56.2116C4.22769 56.0853 4.18812 55.9792 4.10896 55.8933C4.03148 55.8074 3.91696 55.7611 3.76538 55.7544V56.6411ZM4.41464 57.9397C4.41464 58.0626 4.38601 58.1721 4.32875 58.2681C4.27148 58.3641 4.18896 58.4391 4.08117 58.493C3.97338 58.5485 3.84706 58.5763 3.70222 58.5763C3.55738 58.5763 3.43106 58.5485 3.32327 58.493C3.21717 58.4391 3.13548 58.3641 3.07822 58.2681C3.02096 58.1721 2.99233 58.0626 2.99233 57.9397C2.99233 57.805 3.02601 57.6904 3.09338 57.5961C3.16243 57.5035 3.25254 57.4395 3.36369 57.4041H3.01001V57.1742H4.87948V57.4041H4.04327C4.15443 57.4395 4.24369 57.5035 4.31106 57.5961C4.38012 57.6904 4.41464 57.805 4.41464 57.9397ZM4.21001 57.874C4.21001 57.7847 4.18896 57.7039 4.14685 57.6315C4.10643 57.5591 4.04748 57.5026 3.97001 57.4622C3.89254 57.4218 3.80327 57.4016 3.70222 57.4016C3.60117 57.4016 3.5119 57.4218 3.43443 57.4622C3.35864 57.5026 3.29969 57.5591 3.25759 57.6315C3.21548 57.7039 3.19443 57.7847 3.19443 57.874C3.19443 58.0172 3.23906 58.1309 3.32833 58.2151C3.41927 58.301 3.5439 58.3439 3.70222 58.3439C3.86054 58.3439 3.98433 58.301 4.07359 58.2151C4.16454 58.1309 4.21001 58.0172 4.21001 57.874ZM4.80369 58.8361C4.8458 58.8361 4.87948 58.8504 4.90475 58.879C4.93169 58.9077 4.94517 58.9456 4.94517 58.9927C4.94517 59.0399 4.93169 59.0778 4.90475 59.1064C4.87948 59.135 4.8458 59.1494 4.80369 59.1494C4.76159 59.1494 4.72706 59.135 4.70012 59.1064C4.67485 59.0778 4.66222 59.0399 4.66222 58.9927C4.66222 58.9456 4.67485 58.9077 4.70012 58.879C4.72706 58.8504 4.76159 58.8361 4.80369 58.8361ZM4.39696 59.1064H3.01001V58.8765H4.39696V59.1064ZM3.21212 60.1379H3.01001L3.01001 59.9661C3.01001 59.8247 3.04369 59.7186 3.11106 59.6478C3.17843 59.5788 3.29127 59.5442 3.44959 59.5442H4.19738V59.3371H4.39696V59.5442H4.74306V59.7767H4.39696V60.1354H4.19738V59.7767H3.44454C3.35527 59.7767 3.2938 59.7927 3.26012 59.8247C3.22812 59.8583 3.21212 59.9156 3.21212 59.9965V60.1379Z" fill="#747378"/>
<rect x="78.6316" y="32.5264" width="10.1053" height="6.94737" rx="1.40351" fill="url(#paint0_radial)"/>
<path fill-rule="evenodd" clip-rule="evenodd" d="M83.6841 32.5957L82.5613 34.4113C82.5613 34.4113 83.0104 35.9999 82.5613 37.3616L83.6841 39.4041L84.8069 37.3616C84.8069 37.3616 84.3578 36.2269 84.8069 34.4113C84.8069 34.4113 83.6841 32.5957 83.6841 32.5957Z" stroke="#C7C7B6" stroke-width="0.364912" stroke-linejoin="bevel"/>
<path d="M78.6316 34.4947H82.5614" stroke="#C7C7B6" stroke-width="0.364912" stroke-linejoin="bevel"/>
<path d="M84.6946 34.4947H88.7367" stroke="#C7C7B6" stroke-width="0.364912" stroke-linejoin="bevel"/>
<path d="M78.6316 37.2735H82.5614" stroke="#C7C7B6" stroke-width="0.364912" stroke-linejoin="bevel"/>
<path d="M84.6946 37.2735H88.7367" stroke="#C7C7B6" stroke-width="0.364912" stroke-linejoin="bevel"/>
</g>
<defs>
<radialGradient id="paint0_radial" cx="0" cy="0" r="1" gradientUnits="userSpaceOnUse" gradientTransform="translate(84.4346 35.0571) rotate(140.439) scale(6.9346 6.92524)">
<stop stop-color="white"/>
<stop offset="1" stop-color="#DDDCDA"/>
</radialGradient>
<clipPath id="clip0">
<path d="M98.5263 0C100.445 0 102 1.55522 102 3.47369V60.9474C102 62.8658 100.445 64.4211 98.5263 64.4211H3.47366C1.55521 64.4211 -2.28882e-05 62.8658 -2.28882e-05 60.9474V3.47369C-2.28882e-05 1.55522 1.5552 0 3.47366 0L98.5263 0Z" fill="white"/>
</clipPath>
</defs>
</svg>
