<svg width="24" height="24" viewBox="0 0 24 24" fill="none" xmlns="http://www.w3.org/2000/svg">
<path fill-rule="evenodd" clip-rule="evenodd" d="M11.5842 2.37596C11.8361 2.20801 12.1643 2.20801 12.4162 2.37596L21.4162 8.37596C21.6912 8.55929 21.8138 8.90102 21.718 9.21734C21.6222 9.53366 21.3307 9.75 21.0002 9.75H3.00018C2.66968 9.75 2.37814 9.53366 2.28236 9.21734C2.18659 8.90102 2.30916 8.55929 2.58416 8.37596L11.5842 2.37596ZM5.47726 8.25H18.5231L12.0002 3.90139L5.47726 8.25Z" fill="#16BC79"/>
<path fill-rule="evenodd" clip-rule="evenodd" d="M5.25024 8.25C5.66446 8.25 6.00024 8.58579 6.00024 9V16.5C6.00024 16.9142 5.66446 17.25 5.25024 17.25C4.83603 17.25 4.50024 16.9142 4.50024 16.5V9C4.50024 8.58579 4.83603 8.25 5.25024 8.25Z" fill="#16BC79"/>
<path fill-rule="evenodd" clip-rule="evenodd" d="M9.75024 8.25C10.1645 8.25 10.5002 8.58579 10.5002 9V16.5C10.5002 16.9142 10.1645 17.25 9.75024 17.25C9.33603 17.25 9.00024 16.9142 9.00024 16.5V9C9.00024 8.58579 9.33603 8.25 9.75024 8.25Z" fill="#16BC79"/>
<path fill-rule="evenodd" clip-rule="evenodd" d="M14.2502 8.25C14.6645 8.25 15.0002 8.58579 15.0002 9V16.5C15.0002 16.9142 14.6645 17.25 14.2502 17.25C13.836 17.25 13.5002 16.9142 13.5002 16.5V9C13.5002 8.58579 13.836 8.25 14.2502 8.25Z" fill="#16BC79"/>
<path fill-rule="evenodd" clip-rule="evenodd" d="M18.7502 8.25C19.1645 8.25 19.5002 8.58579 19.5002 9V16.5C19.5002 16.9142 19.1645 17.25 18.7502 17.25C18.336 17.25 18.0002 16.9142 18.0002 16.5V9C18.0002 8.58579 18.336 8.25 18.7502 8.25Z" fill="#16BC79"/>
<path fill-rule="evenodd" clip-rule="evenodd" d="M2.25024 16.5C2.25024 16.0858 2.58603 15.75 3.00024 15.75H21.0002C21.4145 15.75 21.7502 16.0858 21.7502 16.5C21.7502 16.9142 21.4145 17.25 21.0002 17.25H3.00024C2.58603 17.25 2.25024 16.9142 2.25024 16.5Z" fill="#16BC79"/>
<path fill-rule="evenodd" clip-rule="evenodd" d="M0.750244 19.5C0.750244 19.0858 1.08603 18.75 1.50024 18.75H22.5002C22.9145 18.75 23.2502 19.0858 23.2502 19.5C23.2502 19.9142 22.9145 20.25 22.5002 20.25H1.50024C1.08603 20.25 0.750244 19.9142 0.750244 19.5Z" fill="#16BC79"/>
</svg>
