<svg width="24" height="24" viewBox="0 0 24 24" fill="none" xmlns="http://www.w3.org/2000/svg">
<path fill-rule="evenodd" clip-rule="evenodd" d="M1.50024 6C1.50024 5.17157 2.17182 4.5 3.00024 4.5H21.0002C21.8287 4.5 22.5002 5.17157 22.5002 6V18C22.5002 18.8284 21.8287 19.5 21.0002 19.5H3.00024C2.17182 19.5 1.50024 18.8284 1.50024 18V6ZM21.0002 6H3.00024V18H21.0002V6Z" fill="#A2A1A5"/>
<path fill-rule="evenodd" clip-rule="evenodd" d="M14.9995 15.75C14.9995 15.3358 15.3353 15 15.7495 15H18.7495C19.1637 15 19.4995 15.3358 19.4995 15.75C19.4995 16.1642 19.1637 16.5 18.7495 16.5H15.7495C15.3353 16.5 14.9995 16.1642 14.9995 15.75Z" fill="#A2A1A5"/>
<path fill-rule="evenodd" clip-rule="evenodd" d="M10.4995 15.75C10.4995 15.3358 10.8353 15 11.2495 15H12.7495C13.1637 15 13.4995 15.3358 13.4995 15.75C13.4995 16.1642 13.1637 16.5 12.7495 16.5H11.2495C10.8353 16.5 10.4995 16.1642 10.4995 15.75Z" fill="#A2A1A5"/>
<path fill-rule="evenodd" clip-rule="evenodd" d="M1.49951 9.07983C1.49951 8.66562 1.8353 8.32983 2.24951 8.32983H21.7495C22.1637 8.32983 22.4995 8.66562 22.4995 9.07983C22.4995 9.49405 22.1637 9.82983 21.7495 9.82983H2.24951C1.8353 9.82983 1.49951 9.49405 1.49951 9.07983Z" fill="#A2A1A5"/>
</svg>
