<svg width="24" height="24" viewBox="0 0 24 24" fill="none" xmlns="http://www.w3.org/2000/svg">
<path fill-rule="evenodd" clip-rule="evenodd" d="M2.68934 4.93934C2.97064 4.65804 3.35217 4.5 3.75 4.5H20.25C20.6478 4.5 21.0294 4.65804 21.3107 4.93934C21.592 5.22065 21.75 5.60218 21.75 6V18C21.75 18.3978 21.592 18.7794 21.3107 19.0607C21.0294 19.342 20.6478 19.5 20.25 19.5H7.78907L7.6923 19.5353L4.71522 22.0379C4.49656 22.2217 4.22997 22.3393 3.9468 22.3768C3.66362 22.4142 3.37563 22.3701 3.11669 22.2495C2.85775 22.1289 2.63863 21.9368 2.48509 21.696C2.33156 21.4551 2.25 21.1754 2.25 20.8897V6C2.25 5.60217 2.40804 5.22064 2.68934 4.93934ZM20.25 6L3.75 6L3.75 20.8897L6.82845 18.3019C6.8955 18.2455 6.97192 18.2013 7.05422 18.1713L7.39982 18.0453C7.48212 18.0153 7.56905 18 7.65665 18H20.25V6Z" fill="#A2A1A5"/>
<path fill-rule="evenodd" clip-rule="evenodd" d="M8.25 10.5C8.25 10.0858 8.58579 9.75 9 9.75H15C15.4142 9.75 15.75 10.0858 15.75 10.5C15.75 10.9142 15.4142 11.25 15 11.25H9C8.58579 11.25 8.25 10.9142 8.25 10.5Z" fill="#A2A1A5"/>
<path fill-rule="evenodd" clip-rule="evenodd" d="M8.25 13.5C8.25 13.0858 8.58579 12.75 9 12.75H15C15.4142 12.75 15.75 13.0858 15.75 13.5C15.75 13.9142 15.4142 14.25 15 14.25H9C8.58579 14.25 8.25 13.9142 8.25 13.5Z" fill="#A2A1A5"/>
</svg>
