<svg width="156" height="58" viewBox="0 0 156 58" fill="none" xmlns="http://www.w3.org/2000/svg">
<path d="M6.65157 30.9836C4.87515 29.1819 4 26.9681 4 24.3427C4 21.7172 4.87515 19.5037 6.65157 17.7019C8.42798 15.9002 10.6929 14.9991 13.4208 14.9991C14.9869 14.9808 16.5301 15.3756 17.8949 16.1439C19.2597 16.9121 20.3978 18.0266 21.1945 19.3749L19.1096 20.5847C18.0803 18.6027 15.8919 17.3158 13.4208 17.3158C11.3359 17.3158 9.63695 17.985 8.32405 19.3234C7.01157 20.6618 6.36764 22.335 6.36764 24.3427C6.36764 26.3247 7.01157 27.9974 8.32405 29.3362C9.63653 30.6751 11.3354 31.3439 13.4208 31.3439C15.8919 31.3439 18.0803 30.057 19.1096 28.1006L21.1945 29.2848C20.4384 30.6329 19.325 31.7462 17.9768 32.5022C16.5904 33.2949 15.0177 33.7036 13.4208 33.6862C10.6929 33.6864 8.42748 32.7854 6.65157 30.9836Z" fill="#161616"/>
<path d="M29.6607 33.6864C28.7684 33.6982 27.8828 33.5312 27.0561 33.1952C26.2294 32.8592 25.4784 32.3611 24.8474 31.7301C24.2163 31.0991 23.7181 30.3481 23.382 29.5214C23.046 28.6948 22.8789 27.8091 22.8907 26.9168C22.8788 26.0245 23.0458 25.1388 23.3818 24.3121C23.7178 23.4854 24.2161 22.7343 24.8471 22.1033C25.4782 21.4723 26.2292 20.9741 27.056 20.6381C27.8827 20.3021 28.7684 20.1351 29.6607 20.1471C30.5536 20.1376 31.4393 20.3061 32.2664 20.6426C33.0934 20.9792 33.8451 21.4771 34.4776 22.1073C35.1101 22.7374 35.6108 23.4873 35.9504 24.3131C36.29 25.1388 36.4618 26.024 36.4556 26.9168C36.4617 27.8097 36.2899 28.6947 35.9502 29.5205C35.6106 30.3462 35.1099 31.096 34.4774 31.7261C33.8449 32.3563 33.0932 32.8541 32.2662 33.1907C31.4392 33.5273 30.5535 33.6957 29.6607 33.6864ZM32.904 30.1857C33.335 29.7598 33.6739 29.2499 33.8996 28.6876C34.1254 28.1252 34.2333 27.5226 34.2165 26.9168C34.2254 26.3146 34.1145 25.7166 33.8902 25.1576C33.6659 24.5985 33.3326 24.0897 32.9099 23.6607C32.4872 23.2316 31.9833 22.8909 31.4277 22.6584C30.8721 22.4258 30.2757 22.306 29.6734 22.306C29.0711 22.306 28.4748 22.4258 27.9191 22.6584C27.3635 22.8909 26.8597 23.2316 26.4369 23.6607C26.0142 24.0897 25.681 24.5985 25.4567 25.1576C25.2323 25.7166 25.1214 26.3146 25.1303 26.9168C25.1278 27.8185 25.392 28.7007 25.8899 29.4525C26.3877 30.2042 27.0969 30.7918 27.928 31.1413C28.7592 31.4908 29.6752 31.5866 30.5606 31.4166C31.4461 31.2465 32.2615 30.8183 32.904 30.1857Z" fill="#161616"/>
<path d="M50.5073 25.4501V33.3521H48.2677V25.5786C48.2677 23.4937 47.0579 22.2839 45.0764 22.2839C42.8368 22.2839 41.3441 23.6481 41.3441 26.5311V33.3521H39.1055V20.4824H41.3431V22.3353C42.2438 20.8685 43.6336 20.1475 45.513 20.1475C48.5253 20.1475 50.5073 22.1809 50.5073 25.4501Z" fill="#161616"/>
<path d="M65.0225 25.4501V33.3521H62.7829V25.5786C62.7829 23.4937 61.5731 22.2839 59.5916 22.2839C57.352 22.2839 55.8592 23.6481 55.8592 26.5311V33.3521H53.6196V20.4824H55.8592V22.3353C56.7602 20.8685 58.1498 20.1475 60.0291 20.1475C63.0405 20.1475 65.0225 22.1809 65.0225 25.4501Z" fill="#161616"/>
<path d="M69.7051 27.9468C70.1427 30.2376 71.9179 31.5767 74.3638 31.5767C76.0627 31.5767 77.2976 30.9588 78.0705 29.6976L79.9755 30.7788C78.7142 32.7094 76.8349 33.6877 74.3126 33.6877C72.2791 33.6877 70.6059 33.044 69.319 31.7828C68.0577 30.4959 67.4141 28.8739 67.4141 26.9182C67.4141 24.9874 68.0321 23.3661 69.2934 22.079C70.5547 20.7919 72.1774 20.1484 74.1582 20.1484C76.0371 20.1484 77.5815 20.8177 78.7657 22.1563C79.9667 23.4567 80.613 25.1743 80.5672 26.9438C80.5671 27.2799 80.5414 27.6156 80.4901 27.9477L69.7051 27.9468ZM69.7051 25.9903H78.3023C77.9162 23.5451 76.2176 22.258 74.1582 22.258C71.7645 22.258 70.0912 23.7261 69.7051 25.9903Z" fill="#161616"/>
<path d="M84.3232 31.7567C83.6905 31.1227 83.193 30.3669 82.8609 29.5351C82.5288 28.7032 82.369 27.8126 82.3912 26.9172C82.3665 26.0255 82.5252 25.1381 82.8573 24.3102C83.1894 23.4822 83.6879 22.7312 84.322 22.1036C85.6088 20.7909 87.2309 20.1475 89.1612 20.1475C91.7093 20.1475 93.8457 21.4602 94.8499 23.5193L92.9706 24.6005C92.3269 23.2364 90.8856 22.3353 89.1612 22.3353C88.5596 22.3212 87.9615 22.4303 87.4037 22.6561C86.8459 22.8818 86.3402 23.2194 85.9179 23.6481C85.4953 24.079 85.1636 24.5904 84.9426 25.152C84.7215 25.7136 84.6156 26.3139 84.631 26.9172C84.6181 27.5163 84.7253 28.112 84.9463 28.669C85.1673 29.226 85.4977 29.733 85.9179 30.1603C86.3402 30.5889 86.8458 30.9266 87.4036 31.1523C87.9614 31.3781 88.5596 31.4872 89.1612 31.473C89.9524 31.494 90.734 31.2959 91.4199 30.9008C92.1057 30.5056 92.669 29.9287 93.0476 29.2336L94.9526 30.3403C94.4265 31.2286 93.7058 31.986 92.8447 32.5555C91.9836 33.125 91.0045 33.4918 89.9811 33.6282C88.9578 33.7646 87.9168 33.6671 86.9366 33.3431C85.9563 33.0191 85.0624 32.4769 84.322 31.7574L84.3232 31.7567Z" fill="#161616"/>
<path d="M113.664 15.3334C114.429 15.3196 115.19 15.4599 115.9 15.7458C116.611 16.0317 117.257 16.4575 117.799 16.9979C118.342 17.5382 118.77 18.1821 119.059 18.8913C119.348 19.6006 119.492 20.3606 119.481 21.1264C119.496 21.8904 119.356 22.6495 119.068 23.3575C118.781 24.0655 118.352 24.7075 117.808 25.2446C117.269 25.7927 116.623 26.2241 115.91 26.5119C115.197 26.7998 114.433 26.9379 113.664 26.9178H109.519V33.3517H107.125V15.3334H113.664ZM113.664 24.6772C114.123 24.6923 114.58 24.6108 115.006 24.4379C115.431 24.265 115.816 24.0046 116.135 23.6735C116.78 22.984 117.131 22.0697 117.112 21.1254C117.112 19.066 115.646 17.573 113.664 17.573H109.519V24.6772H113.664Z" fill="#161616"/>
<path d="M131.756 20.4828H133.995V33.3525H131.756V31.1398C130.649 32.8389 129.028 33.6883 126.891 33.6882C126.029 33.7033 125.173 33.537 124.38 33.1999C123.586 32.8629 122.872 32.3626 122.284 31.7317C121.664 31.095 121.177 30.3419 120.85 29.5158C120.523 28.6897 120.363 27.807 120.379 26.9186C120.363 26.0341 120.523 25.1553 120.85 24.3333C121.177 23.5113 121.665 22.7626 122.284 22.1309C122.871 21.4965 123.584 20.9924 124.377 20.6509C125.171 20.3095 126.028 20.1385 126.891 20.1489C129.028 20.1489 130.649 20.9983 131.756 22.697V20.4828ZM130.444 30.2124C130.873 29.7799 131.211 29.2651 131.436 28.699C131.662 28.1328 131.771 27.5269 131.756 26.9177C131.773 26.3119 131.665 25.7091 131.44 25.1468C131.214 24.5844 130.875 24.0744 130.444 23.6485C129.577 22.7909 128.407 22.3099 127.188 22.3099C125.968 22.3099 124.798 22.7909 123.931 23.6485C123.5 24.0745 123.161 24.5844 122.935 25.1468C122.71 25.7091 122.602 26.3119 122.618 26.9177C122.604 27.5269 122.713 28.1328 122.938 28.699C123.164 29.2651 123.501 29.7799 123.931 30.2124C124.805 31.0545 125.973 31.5249 127.187 31.5249C128.401 31.5249 129.568 31.0545 130.443 30.2124H130.444Z" fill="#161616"/>
<path d="M146.374 20.4819H148.768L143.517 34.1495C142.41 37.0584 140.376 38.6799 137.802 38.5004V36.4147C139.373 36.5435 140.531 35.6683 141.278 33.7892L141.509 33.3002L135.898 20.4819H138.291L142.667 30.5716L146.374 20.4819Z" fill="#161616"/>
<path d="M104.166 22.6433V20.4803H100.743V15.333L98.5035 17.6223V20.4815H95.9553V22.6445H98.5035V29.6176C98.5035 32.8097 100.254 33.8646 104.166 33.35V31.3433C101.876 31.4465 100.743 31.6009 100.743 29.6186V22.6433H104.166Z" fill="#161616"/>
<path d="M119.918 53.7018C107.528 53.7018 95.8341 49.2142 87.8359 41.3895L89.5102 39.6782C97.0646 47.0688 108.147 51.3076 119.917 51.3076C131.686 51.3076 142.771 47.0688 150.326 39.6782L152 41.3895C144.001 49.2142 132.308 53.7018 119.918 53.7018Z" fill="#19D68A"/>
</svg>
