<svg width="32" height="32" viewBox="0 0 32 32" fill="none" xmlns="http://www.w3.org/2000/svg">
<path fill-rule="evenodd" clip-rule="evenodd" d="M14.5 5C9.25329 5 5 9.25329 5 14.5C5 19.7467 9.25329 24 14.5 24C19.7467 24 24 19.7467 24 14.5C24 9.25329 19.7467 5 14.5 5ZM3 14.5C3 8.14873 8.14873 3 14.5 3C20.8513 3 26 8.14873 26 14.5C26 20.8513 20.8513 26 14.5 26C8.14873 26 3 20.8513 3 14.5Z" fill="black"/>
<path fill-rule="evenodd" clip-rule="evenodd" d="M21.2171 21.2179C21.6076 20.8274 22.2408 20.8274 22.6313 21.2179L28.7064 27.293C29.0969 27.6835 29.0969 28.3167 28.7064 28.7072C28.3159 29.0978 27.6827 29.0978 27.2922 28.7072L21.2171 22.6322C20.8266 22.2416 20.8266 21.6085 21.2171 21.2179Z" fill="black"/>
</svg>
