<svg width="24" height="24" viewBox="0 0 24 24" fill="none" xmlns="http://www.w3.org/2000/svg">
<path fill-rule="evenodd" clip-rule="evenodd" d="M12.0001 7.5C9.51484 7.5 7.50012 9.51472 7.50012 12C7.50012 14.4853 9.51484 16.5 12.0001 16.5C14.4854 16.5 16.5001 14.4853 16.5001 12C16.5001 9.51472 14.4854 7.5 12.0001 7.5ZM6.00012 12C6.00012 8.68629 8.68641 6 12.0001 6C15.3138 6 18.0001 8.68629 18.0001 12C18.0001 15.3137 15.3138 18 12.0001 18C8.68641 18 6.00012 15.3137 6.00012 12Z" fill="#A2A1A5"/>
<path fill-rule="evenodd" clip-rule="evenodd" d="M14.3945 1.92071C14.6146 1.8864 14.8395 1.90096 15.0533 1.96336L15.0611 1.96564C15.7079 2.16204 16.3341 2.42092 16.9308 2.73854L16.9388 2.74277C17.1342 2.84983 17.3035 2.99875 17.4348 3.17883C17.5653 3.35798 17.6549 3.56362 17.6973 3.78119C17.6975 3.78231 17.6977 3.78343 17.6979 3.78455L17.9943 5.26623L18.7338 6.00573L20.2154 6.30211C20.2165 6.30231 20.2176 6.30252 20.2186 6.30273C20.4362 6.34505 20.6419 6.43466 20.8211 6.56524C21.0012 6.69646 21.15 6.86582 21.2571 7.06122L21.2614 7.06909C21.5791 7.66577 21.8379 8.29197 22.0343 8.93878L22.0367 8.94661C22.0991 9.16042 22.1136 9.38535 22.0793 9.6054C22.0451 9.82465 21.9633 10.0337 21.8395 10.2179C21.839 10.2186 21.8386 10.2193 21.8381 10.2199L21 11.4771V12.5229L21.8381 13.7801C21.8385 13.7807 21.8389 13.7813 21.8393 13.7819C21.9632 13.9661 22.0451 14.1753 22.0793 14.3946C22.1136 14.6147 22.0991 14.8396 22.0367 15.0534L22.0344 15.0612C21.8379 15.7081 21.579 16.3342 21.2614 16.9309L21.2571 16.9388C21.1501 17.1342 21.0011 17.3036 20.8211 17.4348C20.6419 17.5653 20.4362 17.655 20.2186 17.6973C20.2175 17.6975 20.2164 17.6977 20.2153 17.6979L18.7337 17.9942L17.9942 18.7338L17.6978 20.2155C17.6976 20.2166 17.6974 20.2177 17.6972 20.2189C17.6548 20.4364 17.5652 20.642 17.4347 20.8212C17.3035 21.0012 17.1341 21.1501 16.9387 21.2572L16.9308 21.2615C16.3341 21.5792 15.7079 21.8379 15.0611 22.0343L15.0533 22.0367C14.8395 22.0991 14.6146 22.1136 14.3945 22.0793C14.1752 22.0451 13.9661 21.9632 13.7819 21.8394C13.7813 21.839 13.7806 21.8386 13.78 21.8381L12.5228 21H11.477L10.2198 21.8381C10.2192 21.8385 10.2186 21.8389 10.218 21.8393C10.0338 21.9631 9.82466 22.045 9.60531 22.0792C9.38526 22.1135 9.16037 22.099 8.94659 22.0366L8.93878 22.0343C8.29193 21.8379 7.66575 21.5791 7.06905 21.2614L7.06109 21.2571C6.86568 21.1501 6.69635 21.0011 6.56513 20.8211C6.43457 20.6419 6.34497 20.4362 6.30265 20.2186C6.30244 20.2175 6.30223 20.2164 6.30202 20.2153L6.00572 18.7337L5.26623 17.9942L3.78454 17.6978C3.78348 17.6976 3.78243 17.6974 3.78137 17.6972C3.56374 17.6549 3.35804 17.5653 3.17884 17.4347C2.99877 17.3035 2.84989 17.1341 2.74283 16.9387L2.73849 16.9308C2.42084 16.3341 2.16204 15.7078 1.96566 15.061L1.96331 15.0532C1.90092 14.8394 1.8864 14.6145 1.92071 14.3944C1.9549 14.1751 2.0368 13.966 2.16061 13.7818C2.16102 13.7812 2.16144 13.7806 2.16186 13.7799L2.99992 12.5228V11.477L2.16188 10.2199C2.16146 10.2193 2.16104 10.2187 2.16062 10.218C2.0368 10.0338 1.9549 9.82471 1.92071 9.6054C1.88639 9.38535 1.90095 9.16043 1.96334 8.94663L1.96563 8.93879C2.16206 8.29195 2.42098 7.66576 2.73866 7.06905L2.74287 7.06113C2.84993 6.86571 2.99887 6.69636 3.17894 6.56514C3.35814 6.43455 3.56383 6.34494 3.78146 6.30263L5.26624 6.00572L6.00582 5.26615L6.30273 3.78138C6.34505 3.56374 6.43466 3.35805 6.56525 3.17884C6.69649 2.99875 6.86587 2.84987 7.06129 2.74281L7.06919 2.73848C7.6659 2.42087 8.2921 2.16208 8.93891 1.96568L8.94669 1.96332C9.16048 1.90092 9.38541 1.8864 9.60547 1.92071C9.82475 1.95489 10.0338 2.03676 10.218 2.16054C10.2187 2.16098 10.2193 2.16142 10.22 2.16186L11.4771 2.99991H12.5229L13.78 2.16186C13.7807 2.16144 13.7813 2.16101 13.7819 2.16058C13.9661 2.03678 14.1752 1.9549 14.3945 1.92071ZM14.632 3.40302C14.6299 3.40254 14.6277 3.40247 14.6256 3.40281C14.6231 3.40319 14.6207 3.40413 14.6186 3.40554L14.6154 3.40775L13.166 4.37395C13.0428 4.45608 12.8981 4.49991 12.75 4.49991H11.25C11.1019 4.49991 10.9572 4.45608 10.834 4.37395L9.38138 3.40555C9.37929 3.40414 9.37691 3.4032 9.37441 3.40281C9.37228 3.40247 9.3701 3.40255 9.368 3.40302C8.81915 3.57014 8.2877 3.78979 7.78101 4.05892C7.77965 4.05981 7.77847 4.06094 7.77751 4.06226C7.77634 4.06387 7.77553 4.06572 7.77516 4.06768L7.77409 4.07321L7.43217 5.78297C7.40313 5.92817 7.33176 6.06153 7.22706 6.16623L6.16632 7.22696C6.06162 7.33167 5.92826 7.40303 5.78306 7.43207L4.06776 7.77508C4.0658 7.77546 4.06395 7.77624 4.06234 7.77741C4.06103 7.77837 4.0599 7.77955 4.05901 7.78091C3.78984 8.28759 3.57015 8.81904 3.40301 9.3679C3.40254 9.37 3.40246 9.37217 3.4028 9.3743C3.40319 9.3768 3.40412 9.37918 3.40553 9.38127L3.40775 9.38456L4.37395 10.8339C4.45609 10.9571 4.49992 11.1018 4.49992 11.2499V12.7499C4.49992 12.898 4.45609 13.0427 4.37395 13.1659L3.40555 14.6185C3.40414 14.6206 3.40319 14.623 3.40281 14.6255C3.40247 14.6276 3.40255 14.6298 3.40302 14.6319C3.57011 15.1808 3.78976 15.7122 4.05889 16.2189C4.05979 16.2203 4.06092 16.2215 4.06224 16.2224C4.06385 16.2236 4.06571 16.2244 4.06767 16.2248L4.0732 16.2258L5.78309 16.5679C5.92828 16.5969 6.06163 16.6683 6.16632 16.773L7.22696 17.8336C7.33167 17.9383 7.40304 18.0717 7.43207 18.2169L7.77509 19.9323C7.7753 19.9334 7.77562 19.9344 7.77609 19.9354C7.77646 19.9362 7.77691 19.937 7.77743 19.9377C7.77839 19.939 7.77957 19.9401 7.78093 19.941C8.28756 20.2102 8.81898 20.4298 9.3678 20.5969C9.36991 20.5974 9.37208 20.5975 9.37422 20.5971C9.37671 20.5967 9.37909 20.5958 9.38119 20.5944L9.38448 20.5922L10.8339 19.626C10.9571 19.5438 11.1019 19.5 11.2499 19.5H12.7499C12.898 19.5 13.0427 19.5438 13.1659 19.626L14.6186 20.5945C14.6207 20.5959 14.6231 20.5968 14.6256 20.5972C14.6277 20.5975 14.6299 20.5975 14.632 20.597C15.1808 20.4299 15.7123 20.2102 16.2189 19.9411C16.2203 19.9402 16.2215 19.9391 16.2224 19.9378C16.2236 19.9362 16.2244 19.9343 16.2248 19.9323L16.2258 19.9268L16.5679 18.2169C16.5969 18.0717 16.6682 17.9384 16.7729 17.8337L17.8336 16.773C17.9383 16.6683 18.0717 16.5969 18.2169 16.5679L19.9323 16.2248C19.9342 16.2245 19.9361 16.2237 19.9377 16.2225C19.939 16.2215 19.9401 16.2204 19.941 16.219C20.2102 15.7124 20.4299 15.1809 20.597 14.6321C20.5975 14.63 20.5975 14.6278 20.5972 14.6257C20.5968 14.6232 20.5959 14.6208 20.5945 14.6187L20.5923 14.6154L19.626 13.166C19.5438 13.0428 19.5 12.8981 19.5 12.75V11.25C19.5 11.1019 19.5438 10.9572 19.626 10.834L20.5923 9.38457L20.5945 9.38128C20.5959 9.37919 20.5968 9.3768 20.5972 9.3743C20.5975 9.37217 20.5975 9.36999 20.597 9.36789C20.4299 8.81907 20.2102 8.28764 19.941 7.78099C19.9401 7.77963 19.939 7.77845 19.9377 7.77749C19.9361 7.77632 19.9342 7.77551 19.9323 7.77514L19.9267 7.77408L18.2169 7.43207C18.0717 7.40302 17.9384 7.33166 17.8337 7.22696L16.7731 6.16632C16.6684 6.06162 16.597 5.92828 16.5679 5.78308L16.2249 4.06769C16.2245 4.06573 16.2237 4.06388 16.2225 4.06227C16.2216 4.06095 16.2204 4.05982 16.219 4.05893C15.7123 3.7898 15.1809 3.57014 14.632 3.40302Z" fill="#A2A1A5"/>
</svg>
