<svg width="24" height="24" viewBox="0 0 24 24" fill="none" xmlns="http://www.w3.org/2000/svg">
<path fill-rule="evenodd" clip-rule="evenodd" d="M15.7849 7.53217C16.0777 7.23928 16.5526 7.23928 16.8455 7.53217L20.783 11.4697C21.0759 11.7626 21.0759 12.2374 20.783 12.5303L16.8455 16.4678C16.5526 16.7607 16.0777 16.7607 15.7849 16.4678C15.492 16.1749 15.492 15.7001 15.7849 15.4072L19.192 12L15.7849 8.59283C15.492 8.29994 15.492 7.82506 15.7849 7.53217Z" fill="#16BC79"/>
<path fill-rule="evenodd" clip-rule="evenodd" d="M9 12C9 11.5858 9.33579 11.25 9.75 11.25H20.25C20.6642 11.25 21 11.5858 21 12C21 12.4142 20.6642 12.75 20.25 12.75H9.75C9.33579 12.75 9 12.4142 9 12Z" fill="#16BC79"/>
<path fill-rule="evenodd" clip-rule="evenodd" d="M3.43934 3.43934C3.72064 3.15804 4.10217 3 4.5 3H11.25C11.6642 3 12 3.33579 12 3.75C12 4.16421 11.6642 4.5 11.25 4.5L4.5 4.5L4.5 19.5H11.25C11.6642 19.5 12 19.8358 12 20.25C12 20.6642 11.6642 21 11.25 21H4.5C4.10218 21 3.72065 20.842 3.43934 20.5607C3.15804 20.2794 3 19.8978 3 19.5V4.5C3 4.10217 3.15804 3.72064 3.43934 3.43934Z" fill="#16BC79"/>
</svg>
