<svg width="24" height="24" viewBox="0 0 24 24" fill="none" xmlns="http://www.w3.org/2000/svg">
<path fill-rule="evenodd" clip-rule="evenodd" d="M12 8.25C10.3431 8.25 9 9.59315 9 11.25C9 12.9069 10.3431 14.25 12 14.25C13.6569 14.25 15 12.9069 15 11.25C15 9.59315 13.6569 8.25 12 8.25ZM7.5 11.25C7.5 8.76472 9.51472 6.75 12 6.75C14.4853 6.75 16.5 8.76472 16.5 11.25C16.5 13.7353 14.4853 15.75 12 15.75C9.51472 15.75 7.5 13.7353 7.5 11.25Z" fill="#16BC79"/>
<path fill-rule="evenodd" clip-rule="evenodd" d="M12.0001 15.75C10.8923 15.75 9.80617 16.0565 8.86187 16.6357C7.91757 17.2148 7.15194 18.044 6.64974 19.0313C6.46195 19.4005 6.01043 19.5476 5.64123 19.3598C5.27202 19.172 5.12496 18.7205 5.31274 18.3513C5.94044 17.1172 6.89739 16.0809 8.07766 15.357C9.25794 14.6331 10.6155 14.25 12.0001 14.25C13.3846 14.25 14.7422 14.6331 15.9225 15.357C17.1027 16.0808 18.0597 17.1172 18.6874 18.3513C18.8752 18.7205 18.7281 19.172 18.3589 19.3598C17.9897 19.5476 17.5382 19.4005 17.3504 19.0313C16.8482 18.0439 16.0826 17.2148 15.1383 16.6357C14.194 16.0565 13.1078 15.75 12.0001 15.75Z" fill="#16BC79"/>
<path fill-rule="evenodd" clip-rule="evenodd" d="M18.75 4.5C18.3358 4.5 18 4.83579 18 5.25C18 5.66421 18.3358 6 18.75 6C19.1642 6 19.5 5.66421 19.5 5.25C19.5 4.83579 19.1642 4.5 18.75 4.5ZM16.5 5.25C16.5 4.00736 17.5074 3 18.75 3C19.9926 3 21 4.00736 21 5.25C21 6.49264 19.9926 7.5 18.75 7.5C17.5074 7.5 16.5 6.49264 16.5 5.25Z" fill="#16BC79"/>
<path fill-rule="evenodd" clip-rule="evenodd" d="M18.75 1.875C19.1642 1.875 19.5 2.21079 19.5 2.625V3.75C19.5 4.16421 19.1642 4.5 18.75 4.5C18.3358 4.5 18 4.16421 18 3.75V2.625C18 2.21079 18.3358 1.875 18.75 1.875Z" fill="#16BC79"/>
<path fill-rule="evenodd" clip-rule="evenodd" d="M15.8272 3.56238C16.0343 3.20366 16.493 3.08076 16.8517 3.28786L17.826 3.85036C18.1847 4.05747 18.3076 4.51616 18.1005 4.87488C17.8934 5.2336 17.4347 5.35651 17.076 5.1494L16.1017 4.5869C15.743 4.37979 15.6201 3.9211 15.8272 3.56238Z" fill="#16BC79"/>
<path fill-rule="evenodd" clip-rule="evenodd" d="M18.1005 5.62488C18.3076 5.9836 18.1847 6.44229 17.826 6.6494L16.8517 7.2119C16.493 7.41901 16.0343 7.2961 15.8272 6.93738C15.6201 6.57866 15.743 6.11997 16.1017 5.91286L17.076 5.35036C17.4347 5.14326 17.8934 5.26616 18.1005 5.62488Z" fill="#16BC79"/>
<path fill-rule="evenodd" clip-rule="evenodd" d="M18.75 6C19.1642 6 19.5 6.33579 19.5 6.75V7.875C19.5 8.28921 19.1642 8.625 18.75 8.625C18.3358 8.625 18 8.28921 18 7.875V6.75C18 6.33579 18.3358 6 18.75 6Z" fill="#16BC79"/>
<path fill-rule="evenodd" clip-rule="evenodd" d="M19.3996 5.62488C19.6067 5.26616 20.0654 5.14326 20.4241 5.35036L21.3984 5.91286C21.7571 6.11997 21.88 6.57866 21.6729 6.93738C21.4658 7.2961 21.0071 7.41901 20.6484 7.2119L19.6741 6.6494C19.3154 6.44229 19.1924 5.9836 19.3996 5.62488Z" fill="#16BC79"/>
<path fill-rule="evenodd" clip-rule="evenodd" d="M21.6729 3.56238C21.88 3.9211 21.7571 4.37979 21.3984 4.5869L20.4241 5.1494C20.0654 5.35651 19.6067 5.2336 19.3996 4.87488C19.1924 4.51616 19.3154 4.05747 19.6741 3.85036L20.6484 3.28786C21.0071 3.08076 21.4658 3.20366 21.6729 3.56238Z" fill="#16BC79"/>
<path fill-rule="evenodd" clip-rule="evenodd" d="M13.3019 3.85205C11.5829 3.57898 9.82147 3.85725 8.27029 4.64695C6.71912 5.43665 5.45783 6.69723 4.66725 8.24796C3.87667 9.79869 3.59741 11.5599 3.86951 13.2791C4.14161 14.9984 4.95109 16.5873 6.1819 17.8181C7.4127 19.0489 9.00162 19.8584 10.7208 20.1305C12.4401 20.4026 14.2013 20.1233 15.752 19.3328C17.3028 18.5422 18.5633 17.2809 19.353 15.7297C20.1428 14.1786 20.421 12.4172 20.148 10.6981C20.083 10.289 20.3619 9.9047 20.771 9.83972C21.1801 9.77474 21.5644 10.0537 21.6294 10.4628C21.9522 12.4947 21.6232 14.5767 20.6898 16.4103C19.7563 18.2438 18.2663 19.7346 16.4333 20.6691C14.6003 21.6036 12.5185 21.9337 10.4864 21.612C8.4542 21.2904 6.57607 20.3336 5.12124 18.8788C3.6664 17.4239 2.70958 15.5458 2.38795 13.5136C2.06633 11.4815 2.39642 9.39966 3.33089 7.56667C4.26537 5.73368 5.75624 4.24365 7.58976 3.31021C9.42328 2.37677 11.5053 2.04785 13.5372 2.37063C13.9463 2.43561 14.2253 2.81991 14.1603 3.229C14.0953 3.63808 13.711 3.91703 13.3019 3.85205Z" fill="#16BC79"/>
</svg>
